:FULLY-SPECIFIED
:FORCE-ALL-JOINTS-BE-3DOF
:DEGREES
918
root -1.38004 14.9503 -36.4129 3.58793 -35.2905 -1.53126
lfemur -30.1075 16.0103 4.32333
ltibia 46.1989 -0 0
lfoot 2.54584 13.0469 -0.69947
ltoes -14.5328 0 0
rfemur -24.5228 -16.966 8.2069
rtibia 59.6065 -0 0
rfoot -14.7499 -21.4095 2.48833
rtoes -12.2968 0 0
lowerback 14.2696 3.3565 -0.492062
upperback -1.17109 4.52486 1.55971
thorax -9.25937 2.23508 0.945397
lowerneck -4.58322 6.21934 0.291969
upperneck 6.92888 8.51545 -2.30951
head 3.45265 4.11465 -0.45207
lclavicle -6.93172e-14 -1.95775e-14 -2.55782e-30
lhumerus -5.51773 -13.6428 69.3077
lradius 68.3433 -0 0
lwrist -20.0631 0 0
lhand -33.732 34.1842 0.0904761
lfingers 7.12502 -0 0
lthumb -7.12412 67.5222 -0.0987535
rclavicle -6.93172e-14 -1.95775e-14 -2.55782e-30
rhumerus -51.1866 22.1813 -85.4934
rradius 116.347 -0 0
rwrist -80.3836 0 0
rhand -5.44887 -18.2069 -0.319457
rfingers 7.12502 -0 0
rthumb 20.3554 -47.0668 -0.273554
919
root -1.37065 14.9508 -36.3768 3.53221 -35.0218 -1.48321
lfemur -30.016 15.926 4.22475
ltibia 46.2618 -0 0
lfoot 2.38042 13.0999 -0.711481
ltoes -14.5558 0 0
rfemur -24.6623 -16.9149 8.18773
rtibia 59.4964 -0 0
rfoot -14.524 -21.2607 2.52992
rtoes -12.1729 0 0
lowerback 14.264 3.34022 -0.532508
upperback -1.16749 4.49656 1.56419
thorax -9.25173 2.22368 0.979535
lowerneck -4.57221 6.1566 0.244627
upperneck 6.94495 8.43239 -2.26619
head 3.45499 4.07318 -0.434814
lclavicle -6.8759e-14 -1.9533e-14 -2.63098e-30
lhumerus -5.51019 -13.8844 69.4316
lradius 68.5436 -0 0
lwrist -19.8492 0 0
lhand -33.7047 34.201 0.0922982
lfingers 7.12502 -0 0
lthumb -7.10366 67.6379 -0.102866
rclavicle -6.8759e-14 -1.9533e-14 -2.63098e-30
rhumerus -50.8957 22.2357 -85.436
rradius 116.281 -0 0
rwrist -80.0635 0 0
rhand -5.38946 -18.2713 -0.32447
rfingers 7.12502 -0 0
rthumb 20.4123 -47.1233 -0.27777
920
root -1.3612 14.9512 -36.3405 3.47661 -34.7516 -1.43533
lfemur -29.9238 15.8413 4.12552
ltibia 46.3251 -0 0
lfoot 2.21401 13.1532 -0.723413
ltoes -14.5788 0 0
rfemur -24.8026 -16.8635 8.16831
rtibia 59.3856 -0 0
rfoot -14.2967 -21.1108 2.57117
rtoes -12.0483 0 0
lowerback 14.2584 3.32384 -0.573193
upperback -1.16387 4.46809 1.56869
thorax -9.24405 2.2122 1.01387
lowerneck -4.56109 6.09349 0.197003
upperneck 6.96103 8.34881 -2.22265
head 3.45732 4.03146 -0.417463
lclavicle -6.81964e-14 -1.94871e-14 -2.70443e-30
lhumerus -5.50327 -14.1277 69.5564
lradius 68.7452 -0 0
lwrist -19.6338 0 0
lhand -33.6772 34.2177 0.0941228
lfingers 7.12502 -0 0
lthumb -7.08304 67.7543 -0.107056
rclavicle -6.81964e-14 -1.94871e-14 -2.70443e-30
rhumerus -50.6028 22.2902 -85.3779
rradius 116.214 -0 0
rwrist -79.7413 0 0
rhand -5.32954 -18.3359 -0.329436
rfingers 7.12502 -0 0
rthumb 20.4697 -47.18 -0.281945
921
root -1.35169 14.9517 -36.304 3.42114 -34.4798 -1.38763
lfemur -29.8309 15.7562 4.02565
ltibia 46.3887 -0 0
lfoot 2.04665 13.207 -0.73526
ltoes -14.602 0 0
rfemur -24.9438 -16.8119 8.14864
rtibia 59.2742 -0 0
rfoot -14.0679 -20.9599 2.61206
rtoes -11.923 0 0
lowerback 14.2528 3.30736 -0.614115
upperback -1.16023 4.43946 1.57321
thorax -9.23633 2.20066 1.0484
lowerneck -4.54985 6.03001 0.149101
upperneck 6.97711 8.26473 -2.1789
head 3.45965 3.9895 -0.400017
lclavicle -6.76294e-14 -1.94399e-14 -2.77815e-30
lhumerus -5.49697 -14.3724 69.6819
lradius 68.9482 -0 0
lwrist -19.417 0 0
lhand -33.6495 34.2345 0.0959498
lfingers 7.12502 -0 0
lthumb -7.06226 67.8714 -0.111324
rclavicle -6.76294e-14 -1.94399e-14 -2.77815e-30
rhumerus -50.308 22.3448 -85.3192
rradius 116.148 -0 0
rwrist -79.4169 0 0
rhand -5.2691 -18.4008 -0.334353
rfingers 7.12502 -0 0
rthumb 20.5276 -47.2369 -0.286077
922
root -1.34213 14.9521 -36.2673 3.3658 -34.2064 -1.34012
lfemur -29.7373 15.6708 3.92513
ltibia 46.4526 -0 0
lfoot 1.87833 13.261 -0.74702
ltoes -14.6253 0 0
rfemur -25.0858 -16.7601 8.12872
rtibia 59.1621 -0 0
rfoot -13.8376 -20.808 2.65259
rtoes -11.7969 0 0
lowerback 14.2471 3.29078 -0.655269
upperback -1.15657 4.41065 1.57774
thorax -9.22857 2.18904 1.08312
lowerneck -4.53848 5.96619 0.100923
upperneck 6.99318 8.18015 -2.13493
head 3.46197 3.94729 -0.382478
lclavicle -6.70581e-14 -1.93913e-14 -2.8521e-30
lhumerus -5.49129 -14.6187 69.8083
lradius 69.1526 -0 0
lwrist -19.1989 0 0
lhand -33.6216 34.2512 0.0977785
lfingers 7.12502 -0 0
lthumb -7.04132 67.9892 -0.11567
rclavicle -6.70581e-14 -1.93913e-14 -2.8521e-30
rhumerus -50.0114 22.3996 -85.2598
rradius 116.08 -0 0
rwrist -79.0903 0 0
rhand -5.20816 -18.4658 -0.339219
rfingers 7.12502 -0 0
rthumb 20.586 -47.294 -0.290165
923
root -1.33252 14.9526 -36.2305 3.3106 -33.9315 -1.29281
lfemur -29.643 15.585 3.82399
ltibia 46.5169 -0 0
lfoot 1.70909 13.3155 -0.758687
ltoes -14.6488 0 0
rfemur -25.2287 -16.708 8.10855
rtibia 59.0494 -0 0
rfoot -13.6059 -20.655 2.69273
rtoes -11.6702 0 0
lowerback 14.2415 3.27411 -0.69665
upperback -1.15289 4.38169 1.5823
thorax -9.22077 2.17735 1.11802
lowerneck -4.527 5.90201 0.0524741
upperneck 7.00925 8.09507 -2.09076
head 3.46427 3.90484 -0.364847
lclavicle -6.64825e-14 -1.93413e-14 -2.92624e-30
lhumerus -5.48626 -14.8665 69.9355
lradius 69.3583 -0 0
lwrist -18.9793 0 0
lhand -33.5934 34.2679 0.0996088
lfingers 7.12502 -0 0
lthumb -7.02023 68.1078 -0.120093
rclavicle -6.64825e-14 -1.93413e-14 -2.92624e-30
rhumerus -49.7128 22.4545 -85.1998
rradius 116.013 -0 0
rwrist -78.7617 0 0
rhand -5.14672 -18.5311 -0.344033
rfingers 7.12502 -0 0
rthumb 20.6449 -47.3512 -0.294207
924
root -1.32286 14.953 -36.1934 3.25555 -33.6551 -1.2457
lfemur -29.548 15.499 3.72221
ltibia 46.5814 -0 0
lfoot 1.53892 13.3703 -0.770257
ltoes -14.6723 0 0
rfemur -25.3723 -16.6557 8.08814
rtibia 58.9361 -0 0
rfoot -13.3727 -20.501 2.73247
rtoes -11.5427 0 0
lowerback 14.2358 3.25733 -0.738255
upperback -1.14918 4.35257 1.58687
thorax -9.21294 2.16559 1.15311
lowerneck -4.5154 5.83748 0.0037571
upperneck 7.02531 8.00952 -2.04639
head 3.46657 3.86216 -0.347126
lclavicle -6.59027e-14 -1.92901e-14 -3.00054e-30
lhumerus -5.48186 -15.1158 70.0635
lradius 69.5653 -0 0
lwrist -18.7584 0 0
lhand -33.565 34.2845 0.10144
lfingers 7.12502 -0 0
lthumb -6.99898 68.2269 -0.124593
rclavicle -6.59027e-14 -1.92901e-14 -3.00054e-30
rhumerus -49.4124 22.5094 -85.1391
rradius 115.945 -0 0
rwrist -78.431 0 0
rhand -5.08479 -18.5966 -0.348793
rfingers 7.12502 -0 0
rthumb 20.7042 -47.4085 -0.298203
